# xmcd
#
# Track frame offsets:
#	150
#	39375
#	63300
#	98100
#	141075
#	183975
#	228150
#
# Disc length: 3669 seconds
# Revision: 0
# Processed by: cddbd v1.5.2PL0 Copyright (c) Steve Scherf et al.
# Submitted via: dBpowerAMP V12.0
#
DISCID=530e5307
DTITLE=David Oistrakh - Bruch Schottiche Fantasie · Hindemith Violinkonzert [Oistrakh]
DYEAR=1962
DGENRE=Classical
TTITLE0=Scottish Fantasy, for violin and orchestra, Op. 46: Grave - Adagio cantabile
TTITLE1=Scottish Fantasy, for violin and orchestra, Op. 46: Scherzo: Allegro
TTITLE2=Scottish Fantasy, for violin and orchestra, Op. 46: Andante sostenuto
TTITLE3=Scottish Fantasy, for violin and orchestra, Op. 46: Finale: Allegro guerriero
TTITLE4=Violin Concerto, for violin and orchestra: Massig bewegte Halbe
TTITLE5=Violin Concerto, for violin and orchestra: Langsam
TTITLE6=Violin Concerto, for violin and orchestra: Lebhaft
EXTD=
EXTT0=
EXTT1=
EXTT2=
EXTT3=
EXTT4=
EXTT5=
EXTT6=
PLAYORDER=
